{"title":"American.Hustle.2013.DVDScr.XVID.AC3.HQ.Hive-CM8","uid":9419535,"size":1675686665,"categoryP":"video","categoryS":"movies","magnet":"?xt=urn:btih:9c990625a2bc688a795cad786990892d176e024e&amp;dn=American.Hustle.2013.DVDScr.XVID.AC3.HQ.Hive-CM8&amp;tr=udp%3A%2F%2Ftracker.openbittorrent.com%3A80&amp;tr=udp%3A%2F%2Fopen.demonii.com%3A1337&amp;tr=udp%3A%2F%2Ftracker.coppersurfer.tk%3A6969&amp;tr=udp%3A%2F%2Fexodus.desync.com%3A6969","seeders":17,"leechers":0,"uploader":"xxxlavalxxx","files":-1,"time":1388537612,"description":" &lt;a href=&quot;\nhttp://www.imdb.com/title/tt1800241/&quot; rel=&quot;nofollow&quot; target=&quot;_NEW&quot;&gt;\nhttp://www.imdb.com/title/tt1800241/&lt;/a&gt;\n\n\nA con man, Irving Rosenfeld, along with his seductive British partner, Sydney Prosser, is forced to work for a wild FBI agent, Richie DiMaso. DiMaso pushes them into a world of Jersey powerbrokers and mafia.\n\nDirector: David O. Russell\nWriters: Eric Singer, David O. Russell\nStars: Christian Bale, Amy Adams, Bradley Cooper \nGenres: Crime | Drama\nCountry: USA\nLanguage: English\n\n\nAmerican.Hustle.2013.DVDScr.XVID.AC3.HQ.Hive-CM8\n\nThx Hive\n\nCM8 Doing It Right The First Time\n\nSource: DVDScr\n\nEncode:\n\nfirstly-further screeners are comin\nwill do each one by one, i want them all as perfect as possible, so keep refreshing, lol\n\nVideo for Hustle took me some time, needed a lot of doing, \nbesides a nasty interlace it was too dark and colouring not perfect.\ni had to brighten it up without overdoing, some scenes couldnt handle it, \nso i had to find a good middleway to get it right,which i finally did\n\nadded brightness,contrast,sharpness and fixed rgb\n\nlooks perfect now and will do me till retail-bd\n\nenjoy\n\nVideo: \n720x304 @bitrate 1400 2pass\nAudio: English AC3 2.0 Stereo\nSample: yes included\n\n &lt;a href=&quot;\nhttp://www.imdb.com/title/tt1800241/&quot; rel=&quot;nofollow&quot; target=&quot;_NEW&quot;&gt;\nhttp://www.imdb.com/title/tt1800241/&lt;/a&gt;\n\n\nGeneral\nComplete name                  : American.Hustle.2013.DVDScr.XVID.AC3.HQ.Hive-CM8.avi\nFormat                         : AVI\nFormat/Info                    : Audio Video Interleave\nFile size                      : 1.55 GiB\nDuration                       : 2h 13mn\nOverall bit rate               : 1 664 Kbps\nWriting application            : Nandub v1.0rc2\nWriting library                : Nandub build 1853/release\n\nVideo\nID                             : 0\nFormat                         : MPEG-4 Visual\nFormat profile                 : Advanced Simple@L5\nFormat settings, BVOP          : 2\nFormat settings, QPel          : Yes\nFormat settings, GMC           : No warppoints\nFormat settings, Matrix        : Default (H.263)\nMuxing mode                    : Packed bitstream\nCodec ID                       : XVID\nCodec ID/Hint                  : XviD\nDuration                       : 2h 13mn\nBit rate                       : 1 399 Kbps\nWidth                          : 720 pixels\nHeight                         : 304 pixels\nDisplay aspect ratio           : 2.35:1\nFrame rate                     : 23.976 fps\nColor space                    : YUV\nChroma subsampling             : 4:2:0\nBit depth                      : 8 bits\nScan type                      : Progressive\nCompression mode               : Lossy\nBits/(Pixel*Frame)             : 0.267\nStream size                    : 1.30 GiB (84%)\nWriting library                : XviD 1.2.1 (UTC 2008-12-04)\n\nAudio\nID                             : 1\nFormat                         : AC-3\nFormat/Info                    : Audio Coding 3\nMode extension                 : CM (complete main)\nFormat settings, Endianness    : Big\nCodec ID                       : 2000\nDuration                       : 2h 13mn\nBit rate mode                  : Constant\nBit rate                       : 256 Kbps\nChannel(s)                     : 2 channels\nChannel positions              : Front: L R\nSampling rate                  : 48.0 KHz\nBit depth                      : 16 bits\nCompression mode               : Lossy\nStream size                    : 244 MiB (15%)\nAlignment                      : Split accross interleaves\nInterleave, duration           : 42 ms (1.00 video frame)\nInterleave, preload duration   : 500 ms\n\n\n\nscreens\n &lt;a href=&quot;\nhttp://i.imgur.com/ceHFpie.png&quot; rel=&quot;nofollow&quot; target=&quot;_NEW&quot;&gt;\nhttp://i.imgur.com/ceHFpie.png&lt;/a&gt; &lt;a href=&quot;\nhttp://i.imgur.com/janN4Ew.png&quot; rel=&quot;nofollow&quot; target=&quot;_NEW&quot;&gt;\nhttp://i.imgur.com/janN4Ew.png&lt;/a&gt; &lt;a href=&quot;\nhttp://i.imgur.com/GzxRBSX.png&quot; rel=&quot;nofollow&quot; target=&quot;_NEW&quot;&gt;\nhttp://i.imgur.com/GzxRBSX.png&lt;/a&gt; &lt;a href=&quot;\nhttp://i.imgur.com/lKwy9cL.png&quot; rel=&quot;nofollow&quot; target=&quot;_NEW&quot;&gt;\nhttp://i.imgur.com/lKwy9cL.png&lt;/a&gt; &lt;a href=&quot;\nhttp://i.imgur.com/prbCcqN.png&quot; rel=&quot;nofollow&quot; target=&quot;_NEW&quot;&gt;\nhttp://i.imgur.com/prbCcqN.png&lt;/a&gt; &lt;a href=&quot;\nhttp://i.imgur.com/vOqw2ui.png&quot; rel=&quot;nofollow&quot; target=&quot;_NEW&quot;&gt;\nhttp://i.imgur.com/vOqw2ui.png&lt;/a&gt;","torrent":{"xt":"urn:btih:9c990625a2bc688a795cad786990892d176e024e","amp;dn":"American.Hustle.2013.DVDScr.XVID.AC3.HQ.Hive-CM8","amp;tr":["udp%3A%2F%2Ftracker.openbittorrent.com%3A80","udp%3A%2F%2Fopen.demonii.com%3A1337","udp%3A%2F%2Ftracker.coppersurfer.tk%3A6969","udp%3A%2F%2Fexodus.desync.com%3A6969"],"infoHash":"9c990625a2bc688a795cad786990892d176e024e","infoHashBuffer":{"type":"Buffer","data":[156,153,6,37,162,188,104,138,121,92,173,120,105,144,137,45,23,110,2,78]},"announce":[],"urlList":[]}}